<?xml version="1.0" standalone="no"?>
<!DOCTYPE svg PUBLIC "-//W3C//DTD SVG 20010904//EN"
 "http://www.w3.org/TR/2001/REC-SVG-20010904/DTD/svg10.dtd">
<svg version="1.0" xmlns="http://www.w3.org/2000/svg"
 width="300.000000pt" height="122.000000pt" viewBox="0 0 300.000000 122.000000"
 preserveAspectRatio="xMidYMid meet">
<metadata>
Created by potrace 1.10, written by Peter Selinger 2001-2011
</metadata>
<g transform="translate(0.000000,122.000000) scale(0.100000,-0.100000)"
fill="#000000" stroke="none">
<path d="M363 1103 c37 -2 97 -2 135 0 37 2 6 3 -68 3 -74 0 -105 -1 -67 -3z"/>
<path d="M843 1103 c53 -2 141 -2 195 0 53 1 9 3 -98 3 -107 0 -151 -2 -97 -3z"/>
<path d="M505 1037 c-78 -34 -156 -68 -175 -75 l-35 -13 95 -24 c116 -29 113
-29 106 -7 -13 39 79 92 159 92 77 0 165 -49 165 -92 0 -15 5 -18 20 -13 18 6
20 3 15 -19 -3 -14 -7 -37 -10 -51 -4 -21 -2 -25 16 -25 21 0 22 3 15 61 -3
34 -6 84 -6 110 0 44 -2 49 -22 49 -13 0 -61 16 -108 35 -47 19 -87 34 -90 34
-3 -1 -68 -29 -145 -62z"/>
<path d="M890 960 c0 -22 3 -40 8 -40 4 1 32 7 62 14 l55 14 -40 16 c-22 9
-48 21 -57 26 -26 15 -28 13 -28 -30z"/>
<path d="M570 958 l-45 -23 -3 -68 -3 -68 33 17 c22 12 56 18 103 18 47 0 81
-6 103 -18 l33 -17 -3 68 -3 68 -45 23 c-24 12 -63 22 -85 22 -22 0 -61 -10
-85 -22z m162 -38 c45 -46 28 -58 -82 -59 -87 0 -90 1 -90 23 0 45 27 61 108
65 25 1 41 -7 64 -29z"/>
<path d="M605 801 c-57 -9 -130 -47 -161 -84 -15 -18 -38 -56 -52 -86 -21 -45
-24 -64 -20 -125 7 -105 45 -166 145 -234 71 -50 63 -15 -19 75 -27 30 -56 71
-64 89 -19 45 -17 131 4 176 16 34 85 118 97 118 3 0 5 -68 4 -151 -1 -164 3
-180 45 -161 l26 11 2 163 3 163 39 0 40 0 -3 -160 c-2 -149 -1 -162 17 -179
11 -9 30 -16 43 -14 22 3 22 4 20 166 -1 89 0 162 3 162 15 0 83 -86 98 -123
36 -88 18 -171 -54 -253 -77 -89 -89 -127 -26 -84 55 38 99 83 121 125 31 58
31 193 -1 252 -60 113 -180 174 -307 154z"/>
<path d="M1200 555 l0 -225 150 0 150 0 0 35 0 35 -105 0 -105 0 0 190 0 190
-45 0 -45 0 0 -225z m52 99 c-2 -68 -12 -68 -12 1 0 32 3 56 6 52 4 -3 6 -27
6 -53z m3 -224 c3 -13 9 -28 15 -34 15 -15 12 -36 -4 -36 -16 0 -23 18 -25 69
-2 38 7 38 14 1z"/>
<path d="M1570 555 l0 -225 43 0 42 0 -3 150 c-2 82 1 150 5 150 5 0 31 -67
58 -150 l49 -150 41 0 40 1 50 149 c27 83 53 150 58 150 5 0 7 -68 5 -150 l-3
-150 43 0 42 0 0 225 0 225 -58 0 -58 0 -54 -165 c-30 -91 -57 -165 -61 -165
-6 0 -84 214 -113 308 -7 20 -14 22 -67 22 l-59 0 0 -225z m103 153 c8 -18 17
-46 20 -63 4 -16 4 -24 1 -17 -9 20 -55 15 -61 -8 -3 -11 -9 -20 -14 -20 -10
0 -12 123 -2 133 16 17 42 5 56 -25z m327 -30 c0 -71 -13 -106 -24 -64 -5 19
-13 26 -31 26 -29 0 -30 6 -9 60 13 31 21 40 40 40 23 0 24 -3 24 -62z m-190
-248 c23 0 27 -4 23 -20 -14 -51 -46 -43 -57 15 -3 17 -3 24 0 18 3 -7 18 -13
34 -13z"/>
<path d="M2200 762 c-68 -36 -87 -125 -40 -185 20 -25 33 -31 142 -61 66 -19
87 -44 69 -82 -24 -53 -108 -53 -168 -1 l-35 30 -23 -29 c-14 -16 -24 -32 -25
-36 0 -4 19 -20 42 -35 55 -37 174 -45 233 -17 46 21 74 77 68 132 -8 72 -43
101 -148 122 -33 7 -68 19 -77 28 -25 21 -23 59 3 73 30 16 115 6 140 -17 20
-18 21 -17 44 11 13 17 24 33 25 37 0 3 -19 16 -43 27 -57 27 -158 29 -207 3z
m16 -156 c10 -14 29 -28 42 -31 13 -3 22 -8 19 -11 -7 -7 -80 24 -89 39 -22
34 2 36 28 3z m190 -83 c12 -17 15 -25 18 -53 2 -15 -18 -7 -21 9 -2 19 -44
61 -60 61 -7 0 -13 4 -13 9 0 15 61 -6 76 -26z"/>
<path d="M617 380 c-20 -11 -44 -20 -53 -20 -18 0 -18 1 21 -73 29 -55 32 -57
70 -57 38 0 41 2 70 57 40 75 40 73 16 73 -11 0 -35 9 -53 20 -34 20 -34 20
-71 0z m67 -36 c20 -7 21 -34 3 -59 -28 -38 -97 14 -72 54 7 12 44 14 69 5z"/>
<path d="M630 202 c0 -12 28 -48 33 -42 2 3 8 15 11 28 6 19 4 22 -18 22 -14
0 -26 -4 -26 -8z"/>
</g>
</svg>
